<svg width="140" height="140" viewBox="0 0 140 140" fill="none" xmlns="http://www.w3.org/2000/svg">
<g clip-path="url(#clip0_368_122)">
<path d="M68.2065 10.634C68.9402 9.14748 71.0598 9.14748 71.7935 10.634L89.2255 45.955C89.5168 46.5453 90.0799 46.9545 90.7313 47.0491L129.71 52.7131C131.351 52.9515 132.006 54.9674 130.819 56.1245L102.613 83.6181C102.142 84.0776 101.927 84.7396 102.038 85.3884L108.697 124.21C108.977 125.844 107.262 127.09 105.795 126.318L70.9307 107.989C70.348 107.683 69.652 107.683 69.0693 107.989L34.2053 126.318C32.7381 127.09 31.0232 125.844 31.3034 124.21L37.9619 85.3884C38.0731 84.7396 37.858 84.0776 37.3867 83.6181L9.18111 56.1245C7.99408 54.9674 8.6491 52.9515 10.2895 52.7131L49.2687 47.0491C49.9201 46.9545 50.4832 46.5453 50.7745 45.955L68.2065 10.634Z" fill="#FFBF00"/>
</g>
<defs>
<clipPath id="clip0_368_122">
<rect width="140" height="140" fill="white"/>
</clipPath>
</defs>
</svg>
